<svg width="178" height="40" viewBox="0 0 178 40" fill="none" xmlns="http://www.w3.org/2000/svg" role="img" aria-labelledby="title desc">
  <title id="title">HBR News Logo</title>
  <desc id="desc">News brand mark with a newspaper icon and broadcast signal.</desc>
  <rect x="1" y="1" width="38" height="38" rx="10" fill="#111111"/>
  <path d="M10 13.5C10 11.567 11.567 10 13.5 10H25.5C27.433 10 29 11.567 29 13.5V27.5C29 28.881 27.881 30 26.5 30H13.5C11.567 30 10 28.433 10 26.5V13.5Z" fill="#FFFFFF"/>
  <path d="M14 15H25" stroke="#111111" stroke-width="2" stroke-linecap="round"/>
  <path d="M14 19H25" stroke="#111111" stroke-width="2" stroke-linecap="round"/>
  <path d="M14 23H20" stroke="#111111" stroke-width="2" stroke-linecap="round"/>
  <path d="M25 23L29.8 18.2" stroke="#D00210" stroke-width="2.4" stroke-linecap="round"/>
  <path d="M29 14.5C32.2 17.3 32.2 22.7 29 25.5" stroke="#D00210" stroke-width="2" stroke-linecap="round"/>
  <path d="M32 11C37.3 15.7 37.3 24.3 32 29" stroke="#D00210" stroke-width="2" stroke-linecap="round"/>
  <path d="M54 11H60V18H68V11H74V29H68V22H60V29H54V11Z" fill="#111111"/>
  <path d="M78 11H89.2C93.2 11 95.4 13.1 95.4 16.1C95.4 18 94.4 19.4 92.9 20.1C94.9 20.8 96.1 22.3 96.1 24.3C96.1 27.3 93.8 29 89.7 29H78V11ZM88 18.1C89 18.1 89.6 17.5 89.6 16.6C89.6 15.7 89 15.1 88 15.1H84V18.1H88ZM88.6 24.8C89.7 24.8 90.3 24.2 90.3 23.2C90.3 22.2 89.7 21.6 88.6 21.6H84V24.8H88.6Z" fill="#111111"/>
  <path d="M99.8 11H110.4C114.6 11 117.2 13.4 117.2 17.1C117.2 19.6 115.9 21.6 113.8 22.6L117.8 29H111.2L107.9 23.4H105.8V29H99.8V11ZM109.6 19.1C110.8 19.1 111.5 18.4 111.5 17.2C111.5 16.1 110.8 15.4 109.6 15.4H105.8V19.1H109.6Z" fill="#111111"/>
  <path d="M124 11H130L137.4 20.1V11H143.1V29H137.8L129.7 19.1V29H124V11Z" fill="#D00210"/>
  <path d="M147 11H162.2V15.6H152.8V17.8H161.3V22.1H152.8V24.4H162.4V29H147V11Z" fill="#D00210"/>
  <path d="M164 11H170L173.8 21L177.1 11H183L176.7 29H171.2L167 18.6L162.8 29H157.3L151 11H157L160.4 21L164 11Z" fill="#D00210" transform="translate(-6 0)"/>
</svg>
